<?xml version="1.0" encoding="iso-8859-1"?>
<!-- Generator: Adobe Illustrator 17.1.0, SVG Export Plug-In . SVG Version: 6.00 Build 0)  -->
<!DOCTYPE svg PUBLIC "-//W3C//DTD SVG 1.1//EN" "http://www.w3.org/Graphics/SVG/1.1/DTD/svg11.dtd">
<svg version="1.1" xmlns="http://www.w3.org/2000/svg" xmlns:xlink="http://www.w3.org/1999/xlink" x="0px" y="0px"
	 viewBox="0 0 2000 2000" style="enable-background:new 0 0 2000 2000;" xml:space="preserve">
<g id="BACKGROUND">
</g>
<g id="OBJECTS">
	<rect x="-0.5" y="-0.5" style="fill:#231F20;stroke:#000000;stroke-miterlimit:10;" width="2003" height="2001"/>
	<g>
		
			<image style="overflow:visible;opacity:0.59;" width="1381" height="1381" xlink:href="9537630A.png"  transform="matrix(1 0 0 1 307 307)">
		</image>
		<g>
			<path style="fill:#FFFFFF;" d="M1269.9,1612.254H718.843c-190.512,0-344.952-154.44-344.952-344.952V716.246
				c0-190.512,154.44-344.952,344.952-344.952H1269.9c190.512,0,344.952,154.44,344.952,344.952v551.057
				C1614.852,1457.814,1460.411,1612.254,1269.9,1612.254z"/>
			<path style="fill:none;stroke:#000000;stroke-miterlimit:10;" d="M1269.9,1612.254H718.843
				c-190.512,0-344.952-154.44-344.952-344.952V716.246c0-190.512,154.44-344.952,344.952-344.952H1269.9
				c190.512,0,344.952,154.44,344.952,344.952v551.057C1614.852,1457.814,1460.411,1612.254,1269.9,1612.254z"/>
		</g>
	</g>
	
		<image style="overflow:visible;" width="2560" height="2560" xlink:href="C:\Users\Godswill Bala\Desktop\20230831_114653.png"  transform="matrix(0.7814 0 0 0.7814 -2000.5 -83.8135)">
	</image>
	
		<image style="overflow:visible;opacity:0.53;" width="1024" height="576" xlink:href="C:\Users\Godswill Bala\Desktop\pngwing.com (7).png"  transform="matrix(0.8635 -0.0036 0.0035 0.8305 493.5847 1109.0001)">
	</image>
	<g>
		<g>
			<linearGradient id="SVGID_1_" gradientUnits="userSpaceOnUse" x1="927.6871" y1="1293.9469" x2="927.6871" y2="549.872">
				<stop  offset="0" style="stop-color:#5228A2"/>
				<stop  offset="0.672" style="stop-color:#4D249B"/>
			</linearGradient>
			<path style="fill:url(#SVGID_1_);" d="M933.632,1293.947h-11.89c-55.786,0-101.011-45.224-101.011-101.011V650.883
				c0-55.786,45.224-101.011,101.011-101.011h11.89c55.787,0,101.011,45.224,101.011,101.011v542.054
				C1034.643,1248.723,989.419,1293.947,933.632,1293.947z"/>
		</g>
	</g>
	<g>
		<g>
			<linearGradient id="SVGID_2_" gradientUnits="userSpaceOnUse" x1="1201.3125" y1="1291.0585" x2="1278.9106" y2="552.7605">
				<stop  offset="0" style="stop-color:#73AF43"/>
				<stop  offset="0.0785" style="stop-color:#70AF49"/>
				<stop  offset="0.1789" style="stop-color:#66AE59"/>
				<stop  offset="0.2913" style="stop-color:#56AC73"/>
				<stop  offset="0.4124" style="stop-color:#3FAB97"/>
				<stop  offset="0.5404" style="stop-color:#23A8C7"/>
				<stop  offset="0.672" style="stop-color:#00A5FF"/>
			</linearGradient>
			<path style="fill:url(#SVGID_2_);" d="M1246.057,1293.947h-11.89c-55.787,0-101.011-45.224-101.011-101.011V650.883
				c0-55.786,45.224-101.011,101.011-101.011h11.89c55.786,0,101.011,45.224,101.011,101.011v542.054
				C1347.068,1248.723,1301.843,1293.947,1246.057,1293.947z"/>
		</g>
	</g>
	<g>
		<g>
			<linearGradient id="SVGID_3_" gradientUnits="userSpaceOnUse" x1="1250.6926" y1="1302.3478" x2="1340.2445" y2="881.0395">
				<stop  offset="0" style="stop-color:#73AF43"/>
				<stop  offset="0.2827" style="stop-color:#72AC43"/>
				<stop  offset="0.5184" style="stop-color:#6EA143"/>
				<stop  offset="0.7372" style="stop-color:#679044"/>
				<stop  offset="0.9446" style="stop-color:#5D7845"/>
				<stop  offset="1" style="stop-color:#5A7045"/>
			</linearGradient>
			<path style="fill:url(#SVGID_3_);" d="M1190.975,1284.573l-10.297-5.945c-48.313-27.894-64.866-89.671-36.972-137.984
				l118.273-204.856c27.894-48.313,89.671-64.866,137.984-36.973l10.297,5.945c48.313,27.894,64.866,89.671,36.972,137.984
				l-118.273,204.856C1301.065,1295.912,1239.287,1312.465,1190.975,1284.573z"/>
		</g>
	</g>
	<linearGradient id="SVGID_4_" gradientUnits="userSpaceOnUse" x1="-1389.0115" y1="2136.0796" x2="-660.3739" y2="2136.0796">
		<stop  offset="0" style="stop-color:#FF9B2A"/>
		<stop  offset="1" style="stop-color:#E70000"/>
	</linearGradient>
	<path style="fill:url(#SVGID_4_);" d="M-1249.996,2063.844v144.472h-15.154v-104.262l-49.1,104.262h-11.113l-48.494-104.06v104.06
		h-15.154v-144.472h12.932l56.374,120.629l56.577-120.629H-1249.996z M-1158.865,2063.844l63.446,144.472h-16.367l-19.6-44.655
		h-66.477l-19.6,44.655h-16.367l63.446-144.472H-1158.865z M-1138.053,2148.708l-26.47-60.415l-26.671,60.415H-1138.053z
		 M-1028.937,2142.445h73.751l-0.808,7.88c-3.839,34.35-36.371,57.991-70.922,57.991c-40.007,0-72.337-32.127-72.337-72.135
		c0-39.806,32.33-72.337,72.337-72.337c33.339,0,62.233,23.035,70.114,55.162h-15.558c-7.477-23.641-29.501-40.209-54.556-40.209
		c-31.724,0-57.384,25.864-57.384,57.385c0,31.723,25.661,57.384,57.384,57.384c23.641,0,44.453-14.346,53.141-35.966h-55.162
		V2142.445z M-868.7,2142.445h73.751l-0.808,7.88c-3.839,34.35-36.371,57.991-70.922,57.991c-40.007,0-72.337-32.127-72.337-72.135
		c0-39.806,32.33-72.337,72.337-72.337c33.339,0,62.233,23.035,70.114,55.162h-15.558c-7.477-23.641-29.501-40.209-54.556-40.209
		c-31.724,0-57.384,25.864-57.384,57.385c0,31.723,25.661,57.384,57.384,57.384c23.641,0,44.453-14.346,53.141-35.966H-868.7
		V2142.445z M-723.82,2063.844l63.446,144.472h-16.367l-19.6-44.655h-66.477l-19.6,44.655h-16.367l63.446-144.472H-723.82z
		 M-703.008,2148.708l-26.47-60.415l-26.671,60.415H-703.008z"/>
	<linearGradient id="SVGID_5_" gradientUnits="userSpaceOnUse" x1="574.46" y1="1467.8165" x2="1392.4531" y2="1467.8165">
		<stop  offset="0" style="stop-color:#E96E00"/>
		<stop  offset="0.1159" style="stop-color:#CC6418"/>
		<stop  offset="0.7054" style="stop-color:#3A318F"/>
		<stop  offset="0.9624" style="stop-color:#001CBF"/>
	</linearGradient>
	<path style="fill:url(#SVGID_5_);" d="M754.556,1526.616h-30.24v-80.64l-48.888,80.64h-21.84l-48.888-80.64v80.64h-30.24v-117.6
		h40.824l49.224,82.992l49.224-82.992h40.824V1526.616z M878.035,1501.584h-70.392l-12.6,25.032H761.78l60.647-117.6h40.824
		l60.815,117.6h-33.432L878.035,1501.584z M866.779,1479.072l-23.855-47.712l-24.024,47.712H866.779z M988.917,1463.616h74.592v63
		h-22.344l-1.345-18.479c-11.088,12.096-28.728,20.159-53.76,20.159c-43.344,0-69.888-21.504-69.888-60.479
		s26.544-60.479,74.928-60.479c47.04,0,70.56,18.312,72.408,47.544h-30.744c-1.68-8.904-9.744-22.176-41.664-22.176
		c-39.312,0-44.688,21.672-44.688,35.783c0,14.28,5.544,36.456,44.688,36.456c29.232,0,40.992-12.768,41.664-21.672h-43.848
		V1463.616z M1145.494,1463.616h74.592v63h-22.344l-1.345-18.479c-11.088,12.096-28.728,20.159-53.76,20.159
		c-43.344,0-69.888-21.504-69.888-60.479s26.544-60.479,74.928-60.479c47.04,0,70.56,18.312,72.408,47.544h-30.744
		c-1.68-8.904-9.744-22.176-41.664-22.176c-39.312,0-44.688,21.672-44.688,35.783c0,14.28,5.544,36.456,44.688,36.456
		c29.232,0,40.992-12.768,41.664-21.672h-43.848V1463.616z M1346.421,1501.584h-70.392l-12.6,25.032h-33.264l60.647-117.6h40.824
		l60.815,117.6h-33.432L1346.421,1501.584z M1335.165,1479.072l-23.855-47.712l-24.024,47.712H1335.165z"/>
	
		<image style="overflow:visible;opacity:0.8;" width="1024" height="576" xlink:href="C:\Users\Godswill Bala\Desktop\pngwing.com (7).png"  transform="matrix(0.4224 -0.7531 0.7244 0.4063 511.7773 1112.2753)">
	</image>
	
		<image style="overflow:visible;" width="1024" height="576" xlink:href="C:\Users\Godswill Bala\Desktop\pngwing.com (7).png"  transform="matrix(0.4224 -0.7531 0.7244 0.4063 817.2008 1119.8114)">
	</image>
	<g>
		<g>
			<linearGradient id="SVGID_6_" gradientUnits="userSpaceOnUse" x1="755.0821" y1="1106.2791" x2="1412.7163" y2="726.5938">
				<stop  offset="0" style="stop-color:#643FB8"/>
				<stop  offset="0.1139" style="stop-color:#5F45BC"/>
				<stop  offset="0.2596" style="stop-color:#4F54C7"/>
				<stop  offset="0.4227" style="stop-color:#356FD9"/>
				<stop  offset="0.597" style="stop-color:#1293F2"/>
				<stop  offset="0.672" style="stop-color:#00A5FF"/>
			</linearGradient>
			<path style="fill:url(#SVGID_6_);" d="M879.375,1282.573l-10.297-5.945c-48.313-27.894-64.866-89.671-36.973-137.984
				l318.334-551.37c27.894-48.313,89.671-64.866,137.984-36.972l10.297,5.945c48.313,27.893,64.866,89.67,36.973,137.983
				l-318.334,551.37C989.466,1293.912,927.688,1310.465,879.375,1282.573z"/>
		</g>
	</g>
	<g>
		<g>
			<linearGradient id="SVGID_7_" gradientUnits="userSpaceOnUse" x1="769.4745" y1="1294.1218" x2="769.4745" y2="534.7511">
				<stop  offset="0" style="stop-color:#FF9B2A"/>
				<stop  offset="0.1117" style="stop-color:#E98C30"/>
				<stop  offset="0.3439" style="stop-color:#B26740"/>
				<stop  offset="0.6737" style="stop-color:#592B58"/>
				<stop  offset="0.8978" style="stop-color:#19006A"/>
			</linearGradient>
			<path style="fill:url(#SVGID_7_);" d="M564.951,1280.573l-10.297-5.945c-48.313-27.894-64.867-89.671-36.973-137.984
				l318.334-551.37c27.894-48.313,89.671-64.866,137.984-36.972l10.297,5.945c48.313,27.893,64.866,89.67,36.972,137.983
				l-318.334,551.37C675.041,1291.912,613.264,1308.465,564.951,1280.573z"/>
		</g>
	</g>
</g>
</svg>
