<?xml version="1.0" encoding="iso-8859-1"?>
<!-- Generator: Adobe Illustrator 17.1.0, SVG Export Plug-In . SVG Version: 6.00 Build 0)  -->
<!DOCTYPE svg PUBLIC "-//W3C//DTD SVG 1.1//EN" "http://www.w3.org/Graphics/SVG/1.1/DTD/svg11.dtd">
<svg version="1.1" id="Layer_1" xmlns="http://www.w3.org/2000/svg" xmlns:xlink="http://www.w3.org/1999/xlink" x="0px" y="0px"
	 viewBox="0 0 2000 2000" style="enable-background:new 0 0 2000 2000;" xml:space="preserve">
<g id="BACKGROUND">
</g>
<image style="overflow:visible;opacity:0.48;" width="1024" height="576" xlink:href="pngwing.com (7).png"  transform="matrix(0.8635 -0.0036 0.0035 0.8305 493.5847 1109.0001)">
</image>
<path style="opacity:0.53;fill:none;enable-background:new    ;" d="z"/>
<g>
	<g>
		
			<linearGradient id="SVGID_1_" gradientUnits="userSpaceOnUse" x1="927.687" y1="706.053" x2="927.6871" y2="1450.1281" gradientTransform="matrix(1 0 0 -1 0 2000)">
			<stop  offset="0" style="stop-color:#5228A2"/>
			<stop  offset="0.672" style="stop-color:#4D249B"/>
		</linearGradient>
		<path style="fill:url(#SVGID_1_);" d="M933.632,1293.947h-11.89c-55.786,0-101.011-45.224-101.011-101.011V650.883
			c0-55.786,45.224-101.011,101.011-101.011h11.89c55.787,0,101.011,45.224,101.011,101.011v542.054
			C1034.643,1248.723,989.419,1293.947,933.632,1293.947z"/>
	</g>
</g>
<g>
	<g>
		
			<linearGradient id="SVGID_2_" gradientUnits="userSpaceOnUse" x1="1201.313" y1="708.9415" x2="1278.9111" y2="1447.2395" gradientTransform="matrix(1 0 0 -1 0 2000)">
			<stop  offset="0" style="stop-color:#73AF43"/>
			<stop  offset="0.0785" style="stop-color:#70AF49"/>
			<stop  offset="0.1789" style="stop-color:#66AE59"/>
			<stop  offset="0.2913" style="stop-color:#56AC73"/>
			<stop  offset="0.4124" style="stop-color:#3FAB97"/>
			<stop  offset="0.5404" style="stop-color:#23A8C7"/>
			<stop  offset="0.672" style="stop-color:#00A5FF"/>
		</linearGradient>
		<path style="fill:url(#SVGID_2_);" d="M1246.057,1293.947h-11.89c-55.787,0-101.011-45.224-101.011-101.011V650.883
			c0-55.786,45.224-101.011,101.011-101.011h11.89c55.786,0,101.011,45.224,101.011,101.011v542.054
			C1347.068,1248.723,1301.843,1293.947,1246.057,1293.947z"/>
	</g>
</g>
<g>
	<g>
		
			<linearGradient id="SVGID_3_" gradientUnits="userSpaceOnUse" x1="1250.693" y1="697.652" x2="1340.245" y2="1118.9604" gradientTransform="matrix(1 0 0 -1 0 2000)">
			<stop  offset="0" style="stop-color:#73AF43"/>
			<stop  offset="0.2827" style="stop-color:#72AC43"/>
			<stop  offset="0.5184" style="stop-color:#6EA143"/>
			<stop  offset="0.7372" style="stop-color:#679044"/>
			<stop  offset="0.9446" style="stop-color:#5D7845"/>
			<stop  offset="1" style="stop-color:#5A7045"/>
		</linearGradient>
		<path style="fill:url(#SVGID_3_);" d="M1190.975,1284.573l-10.297-5.945c-48.313-27.894-64.866-89.671-36.972-137.984
			l118.273-204.856c27.894-48.313,89.671-64.866,137.984-36.973l10.297,5.945c48.313,27.894,64.866,89.671,36.972,137.984
			L1328.959,1247.6C1301.065,1295.912,1239.287,1312.465,1190.975,1284.573z"/>
	</g>
</g>
<image style="overflow:visible;" width="1024" height="576" xlink:href="pngwing.com (7).png"  transform="matrix(0.4224 -0.7531 0.7244 0.4063 511.7773 1112.2753)">
</image>
<path style="opacity:0.8;fill:none;enable-background:new    ;" d="z"/>
<image style="overflow:visible;" width="1024" height="576" xlink:href="pngwing.com (7).png"  transform="matrix(0.4224 -0.7531 0.7244 0.4063 817.2008 1119.8114)">
</image>
<path style="fill:none;enable-background:new    ;" d="z"/>
<g>
	<g>
		
			<linearGradient id="SVGID_4_" gradientUnits="userSpaceOnUse" x1="755.0815" y1="893.7203" x2="1412.7162" y2="1273.4058" gradientTransform="matrix(1 0 0 -1 0 2000)">
			<stop  offset="0" style="stop-color:#643FB8"/>
			<stop  offset="0.1139" style="stop-color:#5F45BC"/>
			<stop  offset="0.2596" style="stop-color:#4F54C7"/>
			<stop  offset="0.4227" style="stop-color:#356FD9"/>
			<stop  offset="0.597" style="stop-color:#1293F2"/>
			<stop  offset="0.672" style="stop-color:#00A5FF"/>
		</linearGradient>
		<path style="fill:url(#SVGID_4_);" d="M879.375,1282.573l-10.297-5.945c-48.313-27.894-64.866-89.671-36.973-137.984
			l318.334-551.37c27.894-48.313,89.671-64.866,137.984-36.972l10.297,5.945c48.313,27.893,64.866,89.67,36.973,137.983
			l-318.334,551.37C989.466,1293.912,927.688,1310.465,879.375,1282.573z"/>
	</g>
</g>
<g>
	<g>
		
			<linearGradient id="SVGID_5_" gradientUnits="userSpaceOnUse" x1="769.4746" y1="705.8782" x2="769.4746" y2="1465.2482" gradientTransform="matrix(1 0 0 -1 0 2000)">
			<stop  offset="0" style="stop-color:#FF9B2A"/>
			<stop  offset="0.1117" style="stop-color:#E98C30"/>
			<stop  offset="0.3439" style="stop-color:#B26740"/>
			<stop  offset="0.6737" style="stop-color:#592B58"/>
			<stop  offset="0.8978" style="stop-color:#19006A"/>
		</linearGradient>
		<path style="fill:url(#SVGID_5_);" d="M564.951,1280.573l-10.297-5.945c-48.313-27.894-64.867-89.671-36.973-137.984
			l318.334-551.37c27.894-48.313,89.671-64.866,137.984-36.972l10.297,5.945c48.313,27.893,64.866,89.67,36.972,137.983
			L702.934,1243.6C675.041,1291.912,613.264,1308.465,564.951,1280.573z"/>
	</g>
</g>
</svg>
